# Eno Creator 1.1.2: test
# Created on Mon Sep 9 08:12:02 2024
o test
mtllib test.mtl
# vertices
v 0.5 0.5 -0.5
v 0.5 1.5 -0.5
v 0.5 0.5 0.5
v 0.5 1.5 0.5
v -0.5 0.5 0.5
v -0.5 1.5 0.5
v -0.5 0.5 -0.5
v -0.5 1.5 -0.5

# uvs
vt 1 0
vt 1 1
vt 0 0
vt 0 1

# normals
vn 1 0 0
vn -1 0 0
vn 0 1 0
vn 0 -1 0
vn 0 0 1
vn 0 0 -1

# triangles
g test
usemtl test
f 1/1/1 2/2/1 3/3/1
f 3/3/1 2/2/1 4/4/1
f 5/1/2 6/2/2 7/3/2
f 7/3/2 6/2/2 8/4/2
f 6/3/3 4/1/3 8/4/3
f 8/4/3 4/1/3 2/2/3
f 7/3/4 1/1/4 5/4/4
f 5/4/4 1/1/4 3/2/4
f 5/3/5 3/1/5 6/4/5
f 6/4/5 3/1/5 4/2/5
f 1/3/6 7/1/6 2/4/6
f 2/4/6 7/1/6 8/2/6
