<svg width="26" height="26" viewBox="0 0 26 26" fill="none" xmlns="http://www.w3.org/2000/svg">
<path fill-rule="evenodd" clip-rule="evenodd" d="M11.5556 0.00405428L11.5515 0L11.2654 0.286054L3.84779 7.7025L3.85186 7.70656V22.1487H18.2963L26 14.4462V0.00405428H11.5556ZM22.7082 1.92968H12.3452L6.56741 7.70656H16.9304L22.7082 1.92968ZM24.0741 3.28728L18.2963 9.06411V19.4255L24.0741 13.6486V3.28728ZM16.3704 20.2231V9.63218H5.77779V20.2231H16.3704Z" fill="white"/>
<path fill-rule="evenodd" clip-rule="evenodd" d="M4.81482 24.0744C6.41031 24.0744 7.70372 22.7812 7.70372 21.1859C7.70372 19.5907 6.41031 18.2975 4.81482 18.2975C3.21933 18.2975 1.92593 19.5907 1.92593 21.1859C1.92593 22.7812 3.21933 24.0744 4.81482 24.0744ZM4.81482 26C7.47398 26 9.62965 23.8447 9.62965 21.1859C9.62965 18.5272 7.47398 16.3719 4.81482 16.3719C2.15567 16.3719 0 18.5272 0 21.1859C0 23.8447 2.15567 26 4.81482 26Z" fill="white"/>
</svg>
