<svg width="28" height="28" viewBox="0 0 28 28" fill="none" xmlns="http://www.w3.org/2000/svg">
<path d="M5.11066 15.6957H5.31918M5.31918 15.6957H12.3043M5.31918 15.6957L1.51384 19.501M5.31918 15.6957L5.47184 15.543M12.3043 15.6957H12.8182M12.3043 15.6957V22.6765M12.3043 15.6957V15.1818M12.3043 22.8893V22.6765M12.3043 22.6765L8.49466 26.4862M12.3043 22.6765L12.4548 22.526M1.36116 19.6537L1.51384 19.501M1.51384 19.501V19.2925M1.51384 19.501V19.8063M8.04102 19.9568L8.19152 19.8063M8.19152 19.8063L8.19369 19.8042M8.19152 19.8063H1.51384M8.19152 19.8063H8.19369M8.19369 19.8042L12.1517 15.8462M8.19369 19.8042V19.2925M8.19369 19.8042V19.8063M8.34417 26.6367L8.49466 26.4862M8.49466 26.4862H8.19369M8.49466 26.4862H8.70753M1 19.8063H1.51384M1.51384 19.8063V26.4862M8.19369 19.8063H8.70753M8.19369 19.8063V26.4862M1 26.4862H1.51384M1.51384 26.4862H8.19369M1.51384 26.4862V27M8.19369 26.4862V27M11.0197 1.51383H11.2283M11.2283 1.51383H18.2134M11.2283 1.51383L7.42293 5.31917M11.2283 1.51383L11.3809 1.36117M18.2134 1.51383H18.7273M18.2134 1.51383V8.49467M18.2134 1.51383V1M18.2134 8.70751V8.49467M18.2134 8.49467L14.4038 12.3043M18.2134 8.49467L18.3639 8.34417M7.27026 5.47184L7.42293 5.31917M7.42293 5.31917V5.11067M7.42293 5.31917V5.62451M13.9501 5.775L14.1006 5.62451M14.1006 5.62451L14.1028 5.62233M14.1006 5.62451H7.42293M14.1006 5.62451H14.1028M14.1028 5.62233L18.0608 1.66433M14.1028 5.62233V5.11067M14.1028 5.62233V5.62451M14.2533 12.4548L14.4038 12.3043M14.4038 12.3043H14.1028M14.4038 12.3043H14.6166M6.90909 5.62451H7.42293M7.42293 5.62451V12.3043M14.1028 5.62451H14.6166M14.1028 5.62451V12.3043M6.90909 12.3043H7.42293M7.42293 12.3043H14.1028M7.42293 12.3043V12.8182M14.1028 12.3043V12.8182M19.2925 13.332H19.501M19.501 13.332H26.4862M19.501 13.332L15.6957 17.1374M19.501 13.332L19.6537 13.1794M26.4862 13.332H27M26.4862 13.332V20.3129M26.4862 13.332V12.8182M26.4862 20.5257V20.3129M26.4862 20.3129L22.6765 24.1225M26.4862 20.3129L26.6367 20.1624M15.543 17.29L15.6957 17.1374M15.6957 17.1374V16.9289M15.6957 17.1374V17.4427M22.2228 17.5932L22.3733 17.4427M22.3733 17.4427L22.3755 17.4405M22.3733 17.4427H15.6957M22.3733 17.4427H22.3755M22.3755 17.4405L26.3335 13.4825M22.3755 17.4405V16.9289M22.3755 17.4405V17.4427M22.526 24.273L22.6765 24.1225M22.6765 24.1225H22.3755M22.6765 24.1225H22.8893M15.1818 17.4427H15.6957M15.6957 17.4427V24.1225M22.3755 17.4427H22.8893M22.3755 17.4427V24.1225M15.1818 24.1225H15.6957M15.6957 24.1225H22.3755M15.6957 24.1225V24.6364M22.3755 24.1225V24.6364" stroke="black" stroke-width="2"/>
</svg>
