<svg width="28" height="28" viewBox="0 0 28 28" fill="none" xmlns="http://www.w3.org/2000/svg">
<path d="M5.54796 14.2212H5.77867M5.77867 14.2212H13.5069M5.77867 14.2212L1.5685 18.5229M5.77867 14.2212L5.94757 14.0486M5.77867 14.2212V5.52174M13.5069 14.2212H14.0754M13.5069 14.2212V22.1126M13.5069 14.2212V13.6403M13.5069 14.2212L18.1489 9.47826M13.5069 14.2212H22.0213M13.5069 14.2212V5.52174M13.5069 22.3532V22.1126M13.5069 22.1126L9.29197 26.4191M13.5069 22.1126L13.6734 21.9424M13.5069 22.1126H22.0213M1.39959 18.6954L1.5685 18.5229M1.5685 18.5229V18.2872M1.5685 18.5229V18.868M8.79007 19.0381L8.95657 18.868M8.95657 18.868L8.95898 18.8656M8.95657 18.868H1.5685M8.95657 18.868H8.95898M8.95898 18.8656L13.3381 14.3913M8.95898 18.8656V18.2872M8.95898 18.8656V18.868M9.12546 26.5893L9.29197 26.4191M9.29197 26.4191H8.95898M9.29197 26.4191H9.52748M1 18.868H1.5685M1.5685 18.868V26.4191M8.95898 18.868H9.52748M8.95898 18.868V26.4191M1 26.4191H1.5685M1.5685 26.4191H8.95898M1.5685 26.4191V27M8.95898 26.4191V27M18.1489 9.47826H27M18.1489 9.47826V1M22.0213 22.1126V14.2212M22.0213 22.1126L27 16.8261V9.47826M22.0213 14.2212L27 9.47826M5.77867 5.52174H13.5069M5.77867 5.52174C5.77867 5.30326 8.86239 2.41621 10.4043 1H18.1489M13.5069 5.52174L18.1489 1" stroke="white" stroke-width="2"/>
</svg>
